<svg width="40" height="40" viewBox="0 0 40 40" fill="none" xmlns="http://www.w3.org/2000/svg">
<g clip-path="url(#clip0_7398_7324)">
<path d="M30.9825 0H9.0175C4.03727 0 0 4.03727 0 9.0175V30.9825C0 35.9627 4.03727 40 9.0175 40H30.9825C35.9627 40 40 35.9627 40 30.9825V9.0175C40 4.03727 35.9627 0 30.9825 0Z" fill="#06C755"/>
<path d="M33.3327 18.115C33.3327 12.1475 27.3502 7.29248 19.9964 7.29248C12.6427 7.29248 6.66016 12.1475 6.66016 18.115C6.66016 23.465 11.4102 27.9462 17.8127 28.7925C18.2477 28.8862 18.8389 29.0787 18.9877 29.45C19.1227 29.7875 19.0764 30.3162 19.0314 30.6562C19.0314 30.6562 18.8752 31.5975 18.8414 31.7975C18.7827 32.135 18.5727 33.1162 19.9964 32.5175C21.4202 31.9187 27.6764 27.995 30.4739 24.7737C32.4064 22.655 33.3327 20.5 33.3327 18.115Z" fill="white"/>
<path d="M28.895 21.5613H25.145C25.0787 21.5613 25.0151 21.535 24.9682 21.4881C24.9214 21.4412 24.895 21.3776 24.895 21.3113V15.4926C24.895 15.4262 24.9214 15.3627 24.9682 15.3158C25.0151 15.2689 25.0787 15.2426 25.145 15.2426H28.895C28.9613 15.2426 29.0249 15.2689 29.0718 15.3158C29.1187 15.3627 29.145 15.4262 29.145 15.4926V16.4388C29.145 16.5051 29.1187 16.5687 29.0718 16.6156C29.0249 16.6625 28.9613 16.6888 28.895 16.6888H26.3488V17.6701H28.895C28.9613 17.6701 29.0249 17.6964 29.0718 17.7433C29.1187 17.7902 29.145 17.8537 29.145 17.9201V18.8751C29.145 18.9414 29.1187 19.0049 29.0718 19.0518C29.0249 19.0987 28.9613 19.1251 28.895 19.1251H26.3488V20.1076H28.895C28.9613 20.1076 29.0249 20.1339 29.0718 20.1808C29.1187 20.2277 29.145 20.2912 29.145 20.3576V21.3026C29.1462 21.3361 29.1406 21.3696 29.1286 21.4009C29.1165 21.4323 29.0983 21.4609 29.075 21.485C29.0516 21.5092 29.0237 21.5284 28.9928 21.5415C28.9618 21.5546 28.9286 21.5613 28.895 21.5613Z" fill="#06C755"/>
<path d="M15.0363 21.5612C15.1026 21.5612 15.1662 21.5349 15.2131 21.488C15.26 21.4411 15.2863 21.3775 15.2863 21.3112V20.3662C15.2863 20.2999 15.26 20.2363 15.2131 20.1894C15.1662 20.1426 15.1026 20.1162 15.0363 20.1162H12.49V15.4912C12.49 15.4249 12.4637 15.3613 12.4168 15.3144C12.3699 15.2675 12.3063 15.2412 12.24 15.2412H11.29C11.2237 15.2412 11.1601 15.2675 11.1133 15.3144C11.0664 15.3613 11.04 15.4249 11.04 15.4912V21.3075C11.04 21.3738 11.0664 21.4374 11.1133 21.4842C11.1601 21.5311 11.2237 21.5575 11.29 21.5575H15.04L15.0363 21.5612Z" fill="#06C755"/>
<path d="M17.2913 15.2312H16.3463C16.2055 15.2312 16.0913 15.3454 16.0913 15.4862V21.3062C16.0913 21.447 16.2055 21.5612 16.3463 21.5612H17.2913C17.4321 21.5612 17.5463 21.447 17.5463 21.3062V15.4862C17.5463 15.3454 17.4321 15.2312 17.2913 15.2312Z" fill="#06C755"/>
<path d="M23.7299 15.2312H22.7849C22.7186 15.2312 22.655 15.2575 22.6082 15.3044C22.5613 15.3513 22.5349 15.4149 22.5349 15.4812V18.9387L19.8724 15.3425C19.8664 15.3329 19.8592 15.3241 19.8512 15.3162L19.8362 15.3012L19.8224 15.29H19.8149L19.8012 15.28H19.7937L19.7799 15.2725H19.7712H19.7574H19.7487H19.7337H19.7237H19.7087H19.6987H19.6849H18.7212C18.6549 15.2725 18.5913 15.2988 18.5444 15.3457C18.4975 15.3926 18.4712 15.4561 18.4712 15.5225V21.3425C18.4712 21.4088 18.4975 21.4723 18.5444 21.5192C18.5913 21.5661 18.6549 21.5925 18.7212 21.5925H19.6674C19.7337 21.5925 19.7973 21.5661 19.8442 21.5192C19.8911 21.4723 19.9174 21.4088 19.9174 21.3425V17.8512L22.5837 21.4512C22.6012 21.4767 22.6232 21.4987 22.6487 21.5162L22.6637 21.5262H22.6712L22.6837 21.5325H22.6962H22.7049H22.7224C22.7445 21.5379 22.7672 21.5408 22.7899 21.5412H23.7299C23.7962 21.5412 23.8598 21.5149 23.9067 21.468C23.9536 21.4211 23.9799 21.3575 23.9799 21.2912V15.4862C23.9806 15.453 23.9746 15.4199 23.9624 15.389C23.9501 15.3581 23.9318 15.3299 23.9085 15.3062C23.8852 15.2824 23.8574 15.2636 23.8268 15.2507C23.7961 15.2378 23.7632 15.2312 23.7299 15.2312Z" fill="#06C755"/>
</g>
<defs>
<clipPath id="clip0_7398_7324">
<rect width="40" height="40" fill="white"/>
</clipPath>
</defs>
</svg>
