<svg width="40" height="40" viewBox="0 0 40 40" fill="none" xmlns="http://www.w3.org/2000/svg">
<path d="M0 6.25C0 2.79822 2.79822 0 6.25 0H33.75C37.2018 0 40 2.79822 40 6.25V33.75C40 37.2018 37.2018 40 33.75 40H6.25C2.79822 40 0 37.2018 0 33.75V6.25Z" fill="black"/>
<path d="M18.123 17.8753V17.0967C17.8562 17.0611 17.585 17.0388 17.305 17.0388C13.9663 17.0344 11.25 19.753 11.25 23.0989C11.25 25.1501 12.2725 26.9654 13.8374 28.0644C12.8282 26.9833 12.2103 25.5283 12.2103 23.9354C12.2103 20.6384 14.851 17.951 18.123 17.8753Z" fill="#25F4EE"/>
<path d="M18.2699 26.703C19.7592 26.703 20.9773 25.515 21.0307 24.0378L21.0351 10.8365H23.4446C23.3957 10.5651 23.3691 10.2848 23.3691 10H20.0793L20.0748 23.2014C20.0215 24.6785 18.8033 25.8665 17.3141 25.8665C16.8517 25.8665 16.4161 25.7508 16.0293 25.5461C16.5272 26.2447 17.3452 26.703 18.2699 26.703Z" fill="#25F4EE"/>
<path d="M27.9481 15.317V14.5829C27.0279 14.5829 26.1743 14.3115 25.4541 13.8398C26.0943 14.574 26.9612 15.108 27.9481 15.317Z" fill="#25F4EE"/>
<path d="M25.4537 13.8397C24.7512 13.0344 24.3289 11.9844 24.3289 10.8364H23.4487C23.6754 12.0912 24.4223 13.1679 25.4537 13.8397Z" fill="#FE2C55"/>
<path d="M17.3096 20.3269C15.7848 20.3269 14.5444 21.5683 14.5444 23.0945C14.5444 24.1579 15.149 25.0833 16.0293 25.5461C15.7003 25.0922 15.5047 24.5361 15.5047 23.9309C15.5047 22.4048 16.745 21.1634 18.2699 21.1634C18.5544 21.1634 18.83 21.2123 19.0879 21.2924V17.9288C18.8211 17.8931 18.55 17.8708 18.2699 17.8708C18.221 17.8708 18.1765 17.8753 18.1276 17.8753V20.456C17.8653 20.3759 17.5941 20.3269 17.3096 20.3269Z" fill="#FE2C55"/>
<path d="M27.9479 15.317V17.8754C26.2407 17.8754 24.6581 17.3282 23.3688 16.4027V23.099C23.3688 26.4405 20.6526 29.1635 17.3094 29.1635C16.0202 29.1635 14.8199 28.7542 13.8374 28.0645C14.9444 29.2525 16.5226 30 18.2697 30C21.6084 30 24.3291 27.2814 24.3291 23.9355V17.2391C25.6183 18.1646 27.201 18.7119 28.9081 18.7119V15.4194C28.5747 15.4194 28.2546 15.3838 27.9479 15.317Z" fill="#FE2C55"/>
<path d="M23.3685 23.0989V16.4026C24.6578 17.3281 26.2404 17.8753 27.9476 17.8753V15.3169C26.9606 15.1079 26.0937 14.5739 25.4535 13.8397C24.4221 13.1679 23.6797 12.0912 23.4441 10.8364H21.0346L21.0301 24.0377C20.9768 25.5149 19.7586 26.7029 18.2694 26.7029C17.3447 26.7029 16.5311 26.2446 16.0243 25.5505C15.1441 25.0833 14.5395 24.1624 14.5395 23.0989C14.5395 21.5728 15.7798 20.3314 17.3047 20.3314C17.5892 20.3314 17.8648 20.3803 18.1227 20.4604V17.8798C14.8507 17.951 12.21 20.6384 12.21 23.9354C12.21 25.5283 12.8279 26.9788 13.8371 28.0645C14.8195 28.7541 16.0199 29.1635 17.3091 29.1635C20.6478 29.1635 23.3685 26.4404 23.3685 23.0989Z" fill="white"/>
</svg>
