<svg width="40" height="40" viewBox="0 0 40 40" fill="none" xmlns="http://www.w3.org/2000/svg">
<path d="M33.75 0H6.25C2.79822 0 0 2.79822 0 6.25V33.75C0 37.2018 2.79822 40 6.25 40H33.75C37.2018 40 40 37.2018 40 33.75V6.25C40 2.79822 37.2018 0 33.75 0Z" fill="black"/>
<path d="M11.0438 11L17.9934 20.3766L11 28H12.5741L18.6969 21.3255L23.6438 28H29L21.6592 18.0961L28.1687 11H26.5947L20.956 17.1469L16.4 11H11.0438ZM13.3585 12.1701H15.8191L26.685 26.8302H24.2244L13.3585 12.1701Z" fill="white"/>
</svg>
